<?xml version="1.0" ?>
<svg width="800" height="800" viewBox="0 0 800 800" xmlns="http://www.w3.org/2000/svg">
    <g>
        <rect height="800" width="800" y="0" x="0" fill="#ffc5c5"/>
    </g>
    <g>
        <path stroke-width="32" stroke="#ff5c5c" fill="#ff5c5c" d="m593.80959,91.09479a90.6974,90.6974 0 0 0 -90.68602,90.73865a90.6974,90.6974 0 0 0 1.11129,13.76429l-237.43005,137.06248a90.6974,90.6974 0 0 0 -60.61714,-23.34613a90.6974,90.6974 0 0 0 -90.68602,90.68602a90.6974,90.6974 0 0 0 90.68602,90.68602a90.6974,90.6974 0 0 0 62.25729,-24.77574l236.16403,136.37399a90.6974,90.6974 0 0 0 -1.48268,15.93488a90.6974,90.6974 0 0 0 90.68602,90.68602a90.6974,90.6974 0 0 0 90.68602,-90.68602a90.6974,90.6974 0 0 0 -90.68602,-90.73865a90.6974,90.6974 0 0 0 -64.11081,26.6819l-234.74152,-135.52617a90.6974,90.6974 0 0 0 1.95964,-18.6348a90.6974,90.6974 0 0 0 -2.53974,-20.64622l233.83112,-134.94437a90.6974,90.6974 0 0 0 65.59306,28.11151a90.6974,90.6974 0 0 0 90.68602,-90.68602a90.6974,90.6974 0 0 0 -90.68602,-90.73865l0.00552,-0.00299z"/>
    </g>
</svg>
